<svg xmlns="http://www.w3.org/2000/svg" width="3464" height="3464" viewBox="0 0 3464 3464" version="1.1"><path d="M 1705.750 248.749 C 1718.538 248.907, 1739.463 248.907, 1752.250 248.749 C 1765.038 248.591, 1754.575 248.461, 1729 248.461 C 1703.425 248.461, 1692.963 248.591, 1705.750 248.749 M 1585 1041.051 C 1582.525 1041.499, 1571.725 1042.365, 1561 1042.977 C 1540.503 1044.145, 1528.473 1045.270, 1518.500 1046.950 C 1515.200 1047.506, 1508.225 1048.678, 1503 1049.554 C 1482.932 1052.921, 1454.937 1059.275, 1441.500 1063.514 C 1439.300 1064.208, 1433.450 1065.995, 1428.500 1067.486 C 1423.550 1068.976, 1418.394 1070.635, 1417.042 1071.171 C 1415.690 1071.708, 1411.865 1073.053, 1408.542 1074.162 C 1405.219 1075.270, 1401.150 1076.767, 1399.500 1077.489 C 1397.850 1078.211, 1394.475 1079.483, 1392 1080.317 C 1387.796 1081.734, 1380.682 1084.704, 1365 1091.589 C 1357.423 1094.916, 1326.787 1110.331, 1319.500 1114.483 C 1262.605 1146.901, 1209.590 1189.890, 1169.646 1236 C 1164.643 1241.775, 1160.302 1246.725, 1159.999 1247 C 1159.696 1247.275, 1157.897 1249.525, 1156 1252 C 1154.103 1254.475, 1152.269 1256.725, 1151.923 1257 C 1150.116 1258.438, 1127.270 1290.129, 1120.565 1300.500 C 1116.298 1307.100, 1111.950 1313.719, 1110.903 1315.210 C 1109.856 1316.700, 1109 1318.154, 1109 1318.442 C 1109 1318.729, 1107.283 1321.785, 1105.185 1325.232 C 1103.087 1328.680, 1101.058 1332.175, 1100.677 1333 C 1100.295 1333.825, 1099.019 1336.075, 1097.840 1338 C 1093.349 1345.337, 1076.945 1379.036, 1072.041 1391 C 1069.223 1397.875, 1066.540 1404.400, 1066.078 1405.500 C 1063.439 1411.793, 1058.390 1425.771, 1055.604 1434.500 C 1054.726 1437.250, 1052.908 1442.875, 1051.564 1447 C 1049.146 1454.422, 1044.482 1471.237, 1042.966 1478 C 1042.534 1479.925, 1041.453 1484.650, 1040.562 1488.500 C 1034.978 1512.652, 1032.571 1528.594, 1027.800 1573 C 1026.179 1588.090, 1026.186 1643, 1027.811 1658 C 1031.717 1694.069, 1032.703 1701.471, 1036.071 1720 C 1037.706 1728.999, 1040.038 1740.131, 1041.516 1746 C 1042.278 1749.025, 1043.646 1754.650, 1044.555 1758.500 C 1045.465 1762.350, 1046.576 1766.625, 1047.024 1768 C 1047.473 1769.375, 1048.606 1773.200, 1049.542 1776.500 C 1053.798 1791.507, 1063.934 1820.629, 1069.032 1832.500 C 1069.504 1833.600, 1070.752 1836.525, 1071.804 1839 C 1077.019 1851.269, 1079.178 1855.881, 1087.719 1873 C 1100.425 1898.466, 1107.270 1910.256, 1123.426 1934.500 C 1130.743 1945.480, 1144.568 1964.799, 1145.969 1966 C 1146.289 1966.275, 1148.104 1968.525, 1150.001 1971 C 1167.090 1993.293, 1204.485 2032.151, 1227.596 2051.629 C 1249.754 2070.305, 1273.804 2088.014, 1295.592 2101.698 C 1301.874 2105.643, 1311.997 2111.725, 1315 2113.358 C 1316.925 2114.404, 1321.425 2116.907, 1325 2118.920 C 1332.192 2122.969, 1366.407 2140, 1367.350 2140 C 1367.677 2140, 1370.320 2141.069, 1373.223 2142.376 C 1378.591 2144.792, 1391.254 2149.976, 1398.500 2152.723 C 1400.700 2153.557, 1403.400 2154.602, 1404.500 2155.044 C 1409.280 2156.968, 1437.971 2166.039, 1447 2168.481 C 1450.575 2169.448, 1455.525 2170.811, 1458 2171.511 C 1460.475 2172.211, 1466.100 2173.531, 1470.500 2174.444 C 1474.900 2175.357, 1480.075 2176.499, 1482 2176.982 C 1497.980 2180.990, 1534.298 2185.994, 1562.500 2188.072 C 1580.007 2189.362, 1632.832 2188.804, 1651.277 2187.133 C 1685.903 2183.998, 1722.815 2177.299, 1754 2168.490 C 1767.954 2164.549, 1771.563 2163.453, 1782.500 2159.839 C 1789.100 2157.657, 1795.400 2155.505, 1796.500 2155.056 C 1797.600 2154.607, 1800.300 2153.547, 1802.500 2152.700 C 1812.876 2148.708, 1822.865 2144.693, 1826.500 2143.053 C 1828.700 2142.060, 1832.975 2140.201, 1836 2138.921 C 1843.568 2135.718, 1878.542 2117.950, 1883.730 2114.673 C 1886.057 2113.203, 1888.182 2112, 1888.454 2112 C 1889.232 2112, 1908.976 2099.670, 1918.162 2093.447 C 1931.558 2084.372, 1930.922 2084.541, 1935.593 2088.829 C 1937.792 2090.848, 1946.095 2098.345, 1954.045 2105.490 C 1961.995 2112.634, 1968.725 2118.711, 1969 2118.994 C 1969.275 2119.277, 1973.543 2123.107, 1978.485 2127.505 C 1983.427 2131.902, 1987.966 2135.950, 1988.571 2136.500 C 1989.176 2137.050, 1993.458 2140.913, 1998.086 2145.085 C 2002.714 2149.256, 2011.192 2156.906, 2016.928 2162.085 C 2022.663 2167.263, 2030.088 2173.924, 2033.428 2176.886 C 2036.767 2179.848, 2041.551 2184.123, 2044.058 2186.386 C 2059.887 2200.675, 2067.301 2207.341, 2082 2220.505 C 2091.075 2228.632, 2100.525 2237.132, 2103 2239.394 C 2105.475 2241.657, 2111.546 2247.106, 2116.490 2251.504 C 2121.435 2255.902, 2127.510 2261.349, 2129.990 2263.610 C 2139.141 2271.949, 2165.688 2295.740, 2174.458 2303.462 C 2179.431 2307.841, 2184.665 2312.566, 2186.089 2313.962 C 2187.513 2315.358, 2192.003 2319.425, 2196.068 2323 C 2200.133 2326.575, 2206.395 2332.200, 2209.985 2335.500 C 2213.575 2338.800, 2220.087 2344.650, 2224.455 2348.500 C 2228.824 2352.350, 2233.132 2356.175, 2234.028 2357 C 2239.981 2362.482, 2246.710 2368.559, 2254.510 2375.496 C 2259.454 2379.894, 2265.630 2385.474, 2268.234 2387.897 C 2292.257 2410.247, 2323.990 2420.905, 2352.500 2416.197 C 2390.584 2409.910, 2420.622 2384.993, 2432.305 2350 C 2439.813 2327.510, 2439.996 2311.150, 2432.994 2288.408 C 2426.842 2268.430, 2416.268 2253.899, 2393.500 2234.136 C 2390.750 2231.749, 2386.244 2227.705, 2383.486 2225.148 C 2380.728 2222.592, 2374.653 2217.127, 2369.986 2213.004 C 2365.319 2208.881, 2361.050 2205.025, 2360.500 2204.434 C 2359.950 2203.844, 2355.681 2200.018, 2351.014 2195.931 C 2346.347 2191.844, 2340.100 2186.250, 2337.131 2183.500 C 2330.935 2177.760, 2332.171 2178.875, 2320.500 2168.500 C 2315.550 2164.100, 2311.275 2160.270, 2311 2159.990 C 2310.725 2159.709, 2303.975 2153.639, 2296 2146.500 C 2288.025 2139.361, 2281.275 2133.289, 2281 2133.006 C 2280.725 2132.723, 2276.454 2128.893, 2271.510 2124.495 C 2262.913 2116.850, 2254.468 2109.210, 2251.067 2106 C 2250.193 2105.175, 2243.632 2099.336, 2236.489 2093.025 C 2229.345 2086.714, 2223.050 2081.057, 2222.500 2080.456 C 2221.950 2079.854, 2217.681 2076.018, 2213.014 2071.931 C 2208.347 2067.844, 2202.100 2062.250, 2199.131 2059.500 C 2192.734 2053.574, 2193.647 2054.391, 2182.995 2045.054 C 2178.323 2040.959, 2174.050 2037.134, 2173.500 2036.554 C 2172.950 2035.974, 2165.975 2029.654, 2158 2022.510 C 2150.025 2015.366, 2143.275 2009.289, 2143 2009.006 C 2142.725 2008.723, 2138.454 2004.893, 2133.510 2000.495 C 2128.565 1996.098, 2122.490 1990.645, 2120.010 1988.377 C 2117.529 1986.110, 2110.524 1979.810, 2104.441 1974.377 C 2080.905 1953.356, 2072.488 1945.515, 2072.186 1944.330 C 2072.014 1943.653, 2074.108 1939.786, 2076.841 1935.736 C 2095.127 1908.637, 2112.550 1876.925, 2126.968 1844.500 C 2129.094 1839.720, 2136.623 1821.133, 2138.716 1815.500 C 2139.533 1813.300, 2140.831 1810.022, 2141.601 1808.216 C 2142.370 1806.410, 2143 1804.266, 2143 1803.453 C 2143 1802.639, 2143.410 1801.191, 2143.911 1800.236 C 2145.039 1798.089, 2147.272 1791.411, 2149.509 1783.500 C 2150.442 1780.200, 2151.609 1776.375, 2152.103 1775 C 2152.596 1773.625, 2153.901 1768.900, 2155.002 1764.500 C 2156.104 1760.100, 2157.421 1754.925, 2157.931 1753 C 2159.464 1747.206, 2161.728 1736.979, 2163.356 1728.500 C 2164.200 1724.100, 2165.423 1717.800, 2166.073 1714.500 C 2167.376 1707.889, 2168.282 1701.493, 2170.466 1683.500 C 2172.863 1663.757, 2172.971 1662.389, 2174.001 1638.819 C 2175.411 1606.566, 2173.348 1563.456, 2169.011 1534.500 C 2166.253 1516.085, 2163.832 1502.858, 2160.959 1490.500 C 2160.448 1488.300, 2159.106 1482.450, 2157.977 1477.500 C 2156.848 1472.550, 2155.542 1467.375, 2155.075 1466 C 2154.608 1464.625, 2153.426 1460.575, 2152.449 1457 C 2147.541 1439.034, 2135.412 1404.735, 2130.407 1394.669 C 2129.633 1393.112, 2129 1391.457, 2129 1390.992 C 2129 1388.788, 2110.645 1350.952, 2103.830 1339.107 C 2101.173 1334.490, 2099 1330.573, 2099 1330.402 C 2099 1329.422, 2083.869 1305.312, 2075.214 1292.500 C 2056.233 1264.402, 2033.893 1237.267, 2008.832 1211.866 C 1996.207 1199.070, 1991.855 1194.987, 1976.963 1181.965 C 1953.320 1161.290, 1925.605 1141.040, 1898 1124.271 C 1879.701 1113.155, 1852.056 1098.574, 1836 1091.570 C 1820.445 1084.786, 1813.148 1081.721, 1808 1079.812 C 1793.477 1074.425, 1783.226 1070.776, 1780.500 1070.022 C 1778.850 1069.566, 1774.575 1068.253, 1771 1067.104 C 1757.058 1062.624, 1747.426 1059.959, 1733 1056.591 C 1723.341 1054.335, 1718.145 1053.238, 1701.500 1049.935 C 1686.974 1047.053, 1660.918 1044.100, 1640 1042.965 C 1629.825 1042.413, 1618.998 1041.520, 1615.940 1040.981 C 1609.448 1039.836, 1591.491 1039.876, 1585 1041.051 M 1566.500 1171.073 C 1529.549 1174.780, 1495.333 1181.062, 1474.939 1187.884 C 1473.048 1188.517, 1465.425 1191.006, 1458 1193.416 C 1450.575 1195.826, 1443.150 1198.349, 1441.500 1199.023 C 1435.749 1201.373, 1434.468 1201.904, 1429.500 1204 C 1421.520 1207.366, 1421.260 1207.488, 1405 1215.432 C 1386.540 1224.452, 1380.434 1227.754, 1368.024 1235.431 C 1329.878 1259.028, 1293.203 1289.999, 1266.107 1321.500 C 1261.376 1327, 1257.262 1331.725, 1256.964 1332 C 1256.666 1332.275, 1252.946 1337, 1248.698 1342.500 C 1244.450 1348, 1240.558 1353.014, 1240.048 1353.643 C 1235.613 1359.113, 1218.089 1386.755, 1210.975 1399.500 C 1203.344 1413.174, 1189 1443.107, 1189 1445.359 C 1189 1446.042, 1188.623 1447.028, 1188.163 1447.550 C 1187.702 1448.073, 1185.872 1452.550, 1184.095 1457.500 C 1182.318 1462.450, 1180.270 1468.075, 1179.543 1470 C 1170.207 1494.733, 1162.419 1529.696, 1157.935 1567 C 1155.327 1588.695, 1155.061 1640.689, 1157.456 1660.541 C 1159.747 1679.535, 1159.772 1679.712, 1161.453 1689.500 C 1164.129 1705.086, 1164.806 1708.610, 1165.890 1712.608 C 1166.471 1714.749, 1167.832 1720.100, 1168.914 1724.500 C 1172.854 1740.513, 1180.480 1764.993, 1184.491 1774.500 C 1185.187 1776.150, 1187.926 1782.675, 1190.577 1789 C 1198.250 1807.304, 1210.863 1831.925, 1220.802 1848 C 1255.928 1904.811, 1305.165 1954.968, 1360.688 1990.500 C 1385.255 2006.222, 1417.503 2022.376, 1442.500 2031.484 C 1448 2033.488, 1454.075 2035.728, 1456 2036.462 C 1459.107 2037.648, 1468.426 2040.560, 1482 2044.587 C 1493.234 2047.920, 1517.515 2053.045, 1533.500 2055.459 C 1557.640 2059.103, 1570.918 2060, 1600.599 2059.992 C 1617.045 2059.987, 1634.550 2059.504, 1639.500 2058.918 C 1644.450 2058.332, 1652.100 2057.458, 1656.500 2056.975 C 1667.697 2055.747, 1680.556 2053.499, 1701.500 2049.110 C 1703.700 2048.649, 1709.100 2047.257, 1713.500 2046.018 C 1717.900 2044.779, 1722.850 2043.422, 1724.500 2043.002 C 1729.659 2041.690, 1741.352 2037.892, 1744.784 2036.414 C 1746.590 2035.636, 1748.926 2035, 1749.975 2035 C 1751.024 2035, 1752.139 2034.585, 1752.452 2034.077 C 1752.766 2033.569, 1754.466 2032.837, 1756.229 2032.450 C 1757.992 2032.063, 1760.124 2031.373, 1760.967 2030.918 C 1761.810 2030.463, 1767.675 2027.962, 1774 2025.360 C 1784.207 2021.162, 1816.725 2005.227, 1819.455 2003.085 C 1820.030 2002.634, 1823.200 2000.799, 1826.500 1999.007 C 1829.800 1997.216, 1833.932 1994.681, 1835.683 1993.375 C 1837.434 1992.069, 1839.095 1991, 1839.374 1991 C 1841.592 1991, 1878.663 1963.670, 1887.739 1955.344 C 1889.032 1954.158, 1892.980 1950.783, 1896.513 1947.844 C 1910.583 1936.138, 1934.739 1910.365, 1952.133 1888.500 C 1970.582 1865.309, 1993.468 1827.634, 2005.285 1801 C 2006.139 1799.075, 2008.224 1794.431, 2009.919 1790.680 C 2011.614 1786.929, 2013 1783.622, 2013 1783.331 C 2013 1783.040, 2013.631 1781.384, 2014.403 1779.651 C 2016.518 1774.903, 2020.551 1763.634, 2023.942 1753 C 2025.609 1747.775, 2027.623 1741.475, 2028.418 1739 C 2029.723 1734.937, 2032.710 1722.869, 2036.460 1706.500 C 2037.757 1700.839, 2039.537 1690.427, 2041.931 1674.500 C 2046.979 1640.910, 2046.990 1593.225, 2041.959 1556.500 C 2040.405 1545.160, 2038.007 1531.172, 2036.834 1526.608 C 2036.284 1524.467, 2035.454 1520.642, 2034.988 1518.108 C 2033.400 1509.463, 2032.226 1504.916, 2026.954 1487 C 2024.018 1477.022, 2021.727 1469.922, 2020.014 1465.500 C 2019.588 1464.400, 2018.549 1461.700, 2017.705 1459.500 C 1997.071 1405.718, 1970.684 1362.057, 1932.491 1318.500 C 1922.053 1306.596, 1895.074 1280.705, 1883.500 1271.484 C 1880.750 1269.293, 1878.275 1267.232, 1878 1266.904 C 1877.087 1265.815, 1854.606 1249.439, 1848 1245.051 C 1839.733 1239.559, 1822.419 1228.850, 1818.500 1226.805 C 1804.094 1219.288, 1785.503 1210.002, 1781 1208.073 C 1769.067 1202.961, 1766.502 1201.881, 1759.500 1199.025 C 1753.042 1196.391, 1723.958 1187.129, 1714 1184.534 C 1703.514 1181.803, 1700.911 1181.188, 1693 1179.576 C 1673.673 1175.639, 1659.101 1173.361, 1643.743 1171.878 C 1629.629 1170.515, 1577.481 1169.971, 1566.500 1171.073 M 3212.468 1732 C 3212.468 1763.075, 3212.594 1775.788, 3212.749 1760.250 C 3212.904 1744.713, 3212.904 1719.288, 3212.749 1703.750 C 3212.594 1688.213, 3212.468 1700.925, 3212.468 1732 M 1703.750 3215.749 C 1717.638 3215.906, 1740.363 3215.906, 1754.250 3215.749 C 1768.138 3215.592, 1756.775 3215.464, 1729 3215.464 C 1701.225 3215.464, 1689.862 3215.592, 1703.750 3215.749" stroke="none" fill="#050505" fill-rule="evenodd"/><path d="M 1645.500 250.049 C 1633.950 250.525, 1621.575 251.370, 1618 251.926 C 1614.425 252.483, 1604.975 253.383, 1597 253.925 C 1580.929 255.019, 1554.156 257.608, 1549.500 258.519 C 1547.850 258.842, 1541.325 259.760, 1535 260.560 C 1522.300 262.166, 1508.478 264.142, 1494 266.420 C 1464.681 271.033, 1466.079 270.789, 1450 274.098 C 1446.975 274.721, 1441.350 275.829, 1437.500 276.560 C 1422.220 279.463, 1395.177 285.434, 1379 289.476 C 1375.975 290.232, 1370.575 291.583, 1367 292.477 C 1363.425 293.372, 1358.025 294.723, 1355 295.479 C 1351.975 296.235, 1346.125 297.775, 1342 298.901 C 1337.875 300.027, 1332.475 301.441, 1330 302.043 C 1327.525 302.644, 1324.808 303.500, 1323.962 303.945 C 1323.115 304.389, 1320.530 305.073, 1318.217 305.463 C 1315.903 305.854, 1313.757 306.585, 1313.446 307.087 C 1313.136 307.589, 1312.024 308, 1310.976 308 C 1309.928 308, 1307.142 308.620, 1304.785 309.378 C 1302.428 310.136, 1296.450 311.970, 1291.500 313.453 C 1286.550 314.936, 1281.600 316.505, 1280.500 316.940 C 1279.400 317.376, 1268.375 321.031, 1256 325.064 C 1243.625 329.097, 1233.072 332.757, 1232.550 333.198 C 1232.027 333.639, 1230.971 334, 1230.201 334 C 1229.432 334, 1227.384 334.627, 1225.651 335.394 C 1223.918 336.160, 1217.100 338.701, 1210.500 341.040 C 1203.900 343.379, 1198.072 345.677, 1197.550 346.146 C 1197.027 346.616, 1195.971 347, 1195.201 347 C 1194.432 347, 1192.384 347.645, 1190.651 348.434 C 1188.918 349.222, 1181.650 352.205, 1174.500 355.061 C 1162.496 359.856, 1155.556 362.733, 1150.500 365.010 C 1149.400 365.505, 1145.800 367.016, 1142.500 368.367 C 1139.200 369.718, 1133.350 372.250, 1129.500 373.993 C 1125.650 375.736, 1120.925 377.858, 1119 378.708 C 1105.184 384.811, 1046.165 413.855, 1034.098 420.489 C 1030.576 422.424, 1022.926 426.557, 1017.098 429.672 C 1011.269 432.787, 1004.925 436.309, 1003 437.500 C 998.990 439.979, 988.579 445.794, 985.258 447.409 C 984.025 448.009, 983.012 448.837, 983.008 449.250 C 983.004 449.663, 982.478 450, 981.840 450 C 981.202 450, 976.656 452.475, 971.737 455.500 C 966.819 458.525, 962.391 461, 961.898 461 C 961.404 461, 961 461.450, 961 462 C 961 462.550, 960.577 463, 960.060 463 C 959.217 463, 952.854 466.846, 934.500 478.453 C 921.299 486.800, 896.480 503.482, 896.167 504.217 C 895.983 504.648, 895.416 505, 894.906 505 C 894.397 505, 891.622 506.651, 888.740 508.669 C 885.858 510.687, 882.162 513.275, 880.527 514.419 C 878.892 515.564, 877.011 516.950, 876.347 517.500 C 875.683 518.050, 872.839 520.075, 870.026 522 C 864.710 525.639, 843.249 541.219, 841.500 542.709 C 840.950 543.177, 834.650 548.010, 827.500 553.447 C 813.665 563.969, 798.126 576.115, 794.001 579.633 C 792.626 580.806, 785.539 586.718, 778.254 592.770 C 766.102 602.864, 755.110 612.250, 751.047 616 C 750.154 616.825, 747.640 619.037, 745.461 620.915 C 740.121 625.519, 725.956 638.434, 713.621 649.946 C 693.287 668.924, 646.159 716.789, 630.496 734.373 C 629.944 734.993, 626.119 739.325, 621.996 744 C 617.873 748.675, 614.226 752.725, 613.891 753 C 613.557 753.275, 611.532 755.559, 609.391 758.076 C 607.251 760.592, 603.250 765.295, 600.500 768.526 C 592.893 777.462, 587.974 783.286, 586.149 785.515 C 585.242 786.624, 582.475 789.999, 580 793.015 C 577.525 796.032, 575.154 798.950, 574.731 799.500 C 574.309 800.050, 573.018 801.625, 571.863 803 C 563.724 812.693, 530.954 855.967, 521.999 868.849 C 518.425 873.991, 515.050 878.716, 514.500 879.349 C 513.950 879.982, 512.151 882.525, 510.503 885 C 508.854 887.475, 507.279 889.725, 507.003 890 C 505.571 891.424, 502 897.046, 502 897.876 C 502 898.403, 501.656 898.983, 501.235 899.167 C 500.506 899.484, 480.774 928.940, 474.216 939.500 C 471.403 944.030, 463.739 956.501, 460.707 961.484 C 460.043 962.574, 458.262 965.356, 456.750 967.664 C 455.238 969.972, 454 972.077, 454 972.343 C 454 972.608, 452.425 975.217, 450.500 978.140 C 448.575 981.063, 447 983.811, 447 984.247 C 447 984.683, 445.776 986.943, 444.280 989.270 C 441.271 993.950, 436.606 1002.136, 434.745 1006 C 434.082 1007.375, 433.271 1008.725, 432.942 1009 C 432.613 1009.275, 431.662 1010.850, 430.829 1012.500 C 429.996 1014.150, 427.356 1019.100, 424.961 1023.500 C 414.721 1042.315, 412.456 1046.682, 401.102 1069.500 C 387.069 1097.701, 373 1127.230, 373 1128.481 C 373 1128.742, 371.393 1132.454, 369.428 1136.728 C 367.464 1141.003, 365.183 1146.075, 364.361 1148 C 363.538 1149.925, 362.468 1152.400, 361.982 1153.500 C 359.831 1158.377, 353.098 1174.951, 351.421 1179.500 C 350.407 1182.250, 349 1185.625, 348.295 1187 C 347.589 1188.375, 347.010 1190.198, 347.006 1191.050 C 347.003 1191.903, 346.640 1193.028, 346.200 1193.550 C 345.442 1194.450, 343.767 1198.598, 338.851 1211.750 C 337.669 1214.912, 336.094 1218.918, 335.351 1220.651 C 334.608 1222.384, 334 1224.447, 334 1225.234 C 334 1226.022, 333.711 1226.956, 333.357 1227.309 C 332.674 1227.993, 327.630 1242.235, 323.373 1255.500 C 321.961 1259.900, 320.174 1264.918, 319.403 1266.651 C 318.631 1268.384, 318 1270.720, 318 1271.842 C 318 1272.964, 317.585 1274.139, 317.077 1274.452 C 316.569 1274.766, 315.844 1276.480, 315.465 1278.261 C 314.514 1282.729, 311.009 1294.149, 309.982 1296.127 C 309.517 1297.022, 308.822 1299.497, 308.438 1301.627 C 308.054 1303.757, 307.388 1305.950, 306.959 1306.500 C 306.530 1307.050, 305.855 1309.300, 305.459 1311.500 C 305.063 1313.700, 304.400 1315.950, 303.985 1316.500 C 303.570 1317.050, 302.761 1319.525, 302.186 1322 C 301.611 1324.475, 300.178 1329.875, 299 1334 C 297.822 1338.125, 296.422 1343.525, 295.889 1346 C 295.356 1348.475, 294.543 1351.192, 294.083 1352.038 C 293.623 1352.885, 292.941 1355.585, 292.567 1358.038 C 292.193 1360.492, 291.488 1363.400, 291.002 1364.500 C 290.515 1365.600, 289.670 1368.525, 289.124 1371 C 288.577 1373.475, 287.160 1379.550, 285.975 1384.500 C 282.982 1396.995, 281.090 1405.550, 279.894 1412 C 279.332 1415.025, 278.471 1418.400, 277.981 1419.500 C 277.490 1420.600, 276.639 1424.200, 276.091 1427.500 C 275.542 1430.800, 274.409 1436.875, 273.573 1441 C 268.924 1463.944, 263.489 1495.716, 260.545 1517.165 C 259.739 1523.031, 258.831 1528.881, 258.525 1530.165 C 257.336 1535.165, 252.534 1580.341, 250.995 1601 C 250.442 1608.425, 249.539 1617.875, 248.989 1622 C 245.011 1651.809, 245.011 1812.191, 248.989 1842 C 249.539 1846.125, 250.440 1855.575, 250.989 1863 C 252.573 1884.387, 257.258 1928.361, 258.536 1933.835 C 258.835 1935.119, 259.739 1940.969, 260.545 1946.835 C 263.446 1967.972, 268.976 2000.381, 273.541 2023 C 274.373 2027.125, 275.515 2033.200, 276.079 2036.500 C 276.642 2039.800, 277.384 2043.175, 277.728 2044 C 278.071 2044.825, 278.909 2048.200, 279.589 2051.500 C 281.771 2062.092, 286.386 2081.914, 289.482 2094 C 290.257 2097.025, 291.392 2101.750, 292.004 2104.500 C 292.616 2107.250, 293.514 2110.400, 294 2111.500 C 294.486 2112.600, 295.328 2115.525, 295.871 2118 C 296.414 2120.475, 297.822 2125.875, 299 2130 C 300.178 2134.125, 301.611 2139.525, 302.186 2142 C 302.761 2144.475, 303.570 2146.950, 303.985 2147.500 C 304.400 2148.050, 305.063 2150.300, 305.459 2152.500 C 305.855 2154.700, 306.530 2156.950, 306.959 2157.500 C 307.388 2158.050, 308.054 2160.243, 308.438 2162.373 C 308.822 2164.503, 309.517 2166.978, 309.982 2167.873 C 311.009 2169.851, 314.514 2181.271, 315.465 2185.739 C 315.844 2187.520, 316.569 2189.234, 317.077 2189.548 C 317.585 2189.861, 318 2191.036, 318 2192.158 C 318 2193.280, 318.622 2195.616, 319.383 2197.349 C 320.143 2199.082, 321.758 2203.650, 322.971 2207.500 C 326.148 2217.587, 331.992 2234.208, 333.074 2236.236 C 333.583 2237.191, 334.015 2238.541, 334.034 2239.236 C 334.053 2239.931, 334.937 2242.300, 336 2244.500 C 337.063 2246.700, 337.947 2249.047, 337.966 2249.716 C 337.985 2250.385, 338.644 2252.410, 339.430 2254.216 C 340.217 2256.022, 341.882 2260.200, 343.130 2263.500 C 344.378 2266.800, 345.760 2269.927, 346.200 2270.450 C 346.640 2270.972, 347.003 2272.097, 347.006 2272.950 C 347.010 2273.802, 347.589 2275.625, 348.295 2277 C 349 2278.375, 350.407 2281.750, 351.421 2284.500 C 353.158 2289.212, 360.039 2306.131, 361.995 2310.500 C 362.488 2311.600, 363.848 2314.750, 365.018 2317.500 C 368.176 2324.924, 372.288 2334.214, 377.191 2345 C 390.051 2373.288, 417.886 2428.685, 427.601 2445.322 C 429.470 2448.524, 431 2451.529, 431 2452 C 431 2452.472, 431.563 2453.472, 432.250 2454.224 C 432.938 2454.976, 434.337 2457.146, 435.359 2459.046 C 439.998 2467.664, 442.278 2471.716, 444.055 2474.500 C 445.109 2476.150, 446.443 2478.583, 447.020 2479.906 C 447.597 2481.230, 449.404 2484.290, 451.035 2486.707 C 452.666 2489.123, 454 2491.334, 454 2491.620 C 454 2491.906, 455.350 2494.102, 457 2496.500 C 458.650 2498.898, 460 2501.135, 460 2501.471 C 460 2501.806, 460.856 2503.300, 461.901 2504.790 C 462.947 2506.281, 466.838 2512.450, 470.549 2518.500 C 479.329 2532.815, 500.250 2564.404, 501.235 2564.833 C 501.656 2565.017, 502 2565.597, 502 2566.124 C 502 2566.954, 505.571 2572.576, 507.003 2574 C 507.279 2574.275, 508.854 2576.525, 510.503 2579 C 512.151 2581.475, 513.950 2584.018, 514.500 2584.651 C 515.050 2585.284, 518.425 2590.009, 521.999 2595.151 C 530.954 2608.033, 563.724 2651.307, 571.863 2661 C 573.018 2662.375, 574.309 2663.950, 574.731 2664.500 C 575.154 2665.050, 577.525 2667.968, 580 2670.985 C 582.475 2674.001, 585.236 2677.376, 586.135 2678.485 C 588.987 2682.002, 600.393 2695.479, 600.958 2696 C 601.256 2696.275, 603.750 2699.200, 606.500 2702.500 C 609.250 2705.800, 613.975 2711.213, 617 2714.529 C 620.025 2717.844, 625.875 2724.331, 630 2728.943 C 655.011 2756.905, 704.618 2806.549, 731.983 2831 C 736.599 2835.125, 742.708 2840.639, 745.558 2843.254 C 748.409 2845.869, 752.004 2849.002, 753.547 2850.216 C 755.091 2851.430, 757.512 2853.507, 758.927 2854.832 C 760.342 2856.156, 768.250 2862.865, 776.500 2869.739 C 784.750 2876.614, 792.625 2883.207, 794 2884.389 C 795.375 2885.572, 801.675 2890.540, 808 2895.429 C 818.103 2903.239, 822.209 2906.501, 827.961 2911.285 C 828.765 2911.953, 831.818 2914.185, 834.747 2916.244 C 837.675 2918.303, 840.618 2920.465, 841.286 2921.049 C 843.053 2922.594, 864.060 2937.902, 870.036 2942 C 872.843 2943.925, 875.683 2945.950, 876.347 2946.500 C 877.011 2947.050, 878.892 2948.436, 880.527 2949.581 C 882.162 2950.725, 885.858 2953.313, 888.740 2955.331 C 891.622 2957.349, 894.397 2959, 894.906 2959 C 895.416 2959, 895.983 2959.352, 896.167 2959.783 C 896.480 2960.518, 921.299 2977.200, 934.500 2985.547 C 952.854 2997.154, 959.217 3001, 960.060 3001 C 960.577 3001, 961 3001.351, 961 3001.781 C 961 3002.210, 962.237 3003.094, 963.750 3003.744 C 965.262 3004.395, 967.357 3005.506, 968.405 3006.214 C 975.426 3010.956, 980.635 3014, 981.727 3014 C 982.427 3014, 983 3014.351, 983 3014.781 C 983 3015.210, 984.238 3016.094, 985.750 3016.744 C 987.263 3017.395, 989.383 3018.506, 990.462 3019.214 C 995.516 3022.527, 1009.979 3030.537, 1030.497 3041.386 C 1032.696 3042.549, 1034.721 3043.768, 1034.997 3044.095 C 1035.523 3044.717, 1090.663 3072.138, 1102.610 3077.718 C 1108.367 3080.408, 1116.654 3084.164, 1127.500 3089 C 1128.600 3089.491, 1132.997 3091.491, 1137.272 3093.446 C 1141.546 3095.401, 1145.284 3097, 1145.577 3097 C 1146.038 3097, 1150.082 3098.696, 1157.500 3102 C 1162.150 3104.071, 1171.158 3107.746, 1181.500 3111.790 C 1183.700 3112.650, 1187.388 3114.174, 1189.695 3115.177 C 1192.002 3116.180, 1194.563 3117, 1195.386 3117 C 1196.209 3117, 1197.139 3117.415, 1197.452 3117.923 C 1197.766 3118.431, 1199.466 3119.163, 1201.229 3119.550 C 1202.992 3119.937, 1205.124 3120.642, 1205.967 3121.115 C 1208.139 3122.335, 1226.295 3128.983, 1227.500 3128.999 C 1228.050 3129.006, 1229.707 3129.642, 1231.183 3130.412 C 1232.658 3131.182, 1235.358 3132.131, 1237.183 3132.521 C 1239.007 3132.912, 1240.950 3133.553, 1241.500 3133.946 C 1242.050 3134.339, 1250.600 3137.262, 1260.500 3140.443 C 1270.400 3143.623, 1279.400 3146.585, 1280.500 3147.024 C 1281.600 3147.464, 1285.875 3148.825, 1290 3150.049 C 1294.125 3151.273, 1300.089 3153.113, 1303.254 3154.137 C 1306.419 3155.162, 1309.880 3156, 1310.945 3156 C 1312.010 3156, 1313.136 3156.411, 1313.446 3156.913 C 1313.757 3157.415, 1315.903 3158.146, 1318.217 3158.537 C 1320.530 3158.927, 1323.115 3159.611, 1323.962 3160.055 C 1324.808 3160.500, 1327.525 3161.371, 1330 3161.990 C 1332.475 3162.610, 1337.650 3163.987, 1341.500 3165.051 C 1345.350 3166.114, 1350.975 3167.505, 1354 3168.141 C 1357.025 3168.777, 1359.950 3169.624, 1360.500 3170.023 C 1361.050 3170.421, 1363.750 3171.072, 1366.500 3171.467 C 1369.250 3171.863, 1371.950 3172.541, 1372.500 3172.973 C 1373.050 3173.405, 1375.975 3174.235, 1379 3174.817 C 1382.025 3175.399, 1387.425 3176.579, 1391 3177.439 C 1408.193 3181.575, 1436.807 3187.587, 1453 3190.466 C 1457.125 3191.200, 1463.088 3192.295, 1466.250 3192.900 C 1480.142 3195.558, 1484.074 3196.237, 1493.500 3197.607 C 1499 3198.406, 1508 3199.721, 1513.500 3200.528 C 1528.756 3202.769, 1543.446 3204.703, 1554.500 3205.928 C 1560 3206.537, 1568.059 3207.512, 1572.408 3208.094 C 1576.758 3208.676, 1588.908 3209.817, 1599.408 3210.631 C 1609.909 3211.445, 1624.800 3212.616, 1632.500 3213.233 C 1651.539 3214.761, 1806.586 3214.766, 1825.500 3213.240 C 1833.200 3212.619, 1848.050 3211.445, 1858.500 3210.633 C 1868.950 3209.820, 1881.325 3208.676, 1886 3208.090 C 1890.675 3207.505, 1898.775 3206.525, 1904 3205.912 C 1918.035 3204.267, 1933.204 3202.297, 1944.500 3200.651 C 1971.938 3196.653, 1975.649 3196.074, 1977.020 3195.581 C 1977.834 3195.289, 1982.775 3194.371, 1988 3193.543 C 2005.863 3190.709, 2046.539 3182.452, 2067 3177.506 C 2070.575 3176.642, 2075.750 3175.480, 2078.500 3174.925 C 2081.250 3174.369, 2084.175 3173.627, 2085 3173.275 C 2085.825 3172.922, 2088.975 3172.084, 2092 3171.411 C 2095.025 3170.738, 2101.100 3169.205, 2105.500 3168.004 C 2118.051 3164.578, 2124.140 3162.982, 2129 3161.843 C 2131.475 3161.264, 2133.928 3160.387, 2134.450 3159.895 C 2134.973 3159.403, 2136.134 3159, 2137.032 3159 C 2137.929 3159, 2141.776 3158.059, 2145.582 3156.910 C 2149.387 3155.760, 2157 3153.459, 2162.500 3151.798 C 2180.848 3146.253, 2185.485 3144.804, 2187.500 3143.980 C 2188.600 3143.530, 2193.100 3142.014, 2197.500 3140.610 C 2208.694 3137.039, 2223.121 3132.127, 2225.500 3131.078 C 2226.600 3130.592, 2230.425 3129.193, 2234 3127.968 C 2243.675 3124.653, 2258.258 3119.103, 2260.236 3117.983 C 2261.191 3117.442, 2262.473 3117, 2263.085 3117 C 2263.697 3117, 2265.616 3116.350, 2267.349 3115.554 C 2269.082 3114.759, 2274.775 3112.454, 2280 3110.432 C 2288.527 3107.131, 2294.602 3104.632, 2300.500 3101.998 C 2301.600 3101.506, 2308.540 3098.561, 2315.923 3095.453 C 2323.306 3092.344, 2330.056 3089.412, 2330.923 3088.936 C 2331.790 3088.460, 2334.750 3087.116, 2337.500 3085.949 C 2359.416 3076.652, 2426.820 3043.119, 2439.230 3035.339 C 2441.282 3034.052, 2443.239 3033, 2443.579 3033 C 2443.919 3033, 2447.958 3030.787, 2452.554 3028.082 C 2457.151 3025.376, 2461.831 3022.871, 2462.956 3022.514 C 2464.080 3022.157, 2465 3021.446, 2465 3020.933 C 2465 3020.420, 2465.470 3020, 2466.044 3020 C 2466.900 3020, 2497.064 3002.411, 2505.488 2997 C 2506.772 2996.175, 2510.001 2994.191, 2512.662 2992.590 C 2524.767 2985.311, 2557.404 2963.767, 2557.833 2962.772 C 2558.017 2962.347, 2558.584 2962, 2559.094 2962 C 2559.915 2962, 2566.621 2957.590, 2572.634 2953.095 C 2573.808 2952.218, 2575.608 2950.935, 2576.634 2950.244 C 2592.649 2939.464, 2639.496 2904.932, 2642 2902.062 C 2642.275 2901.747, 2644.300 2900.165, 2646.500 2898.547 C 2648.700 2896.929, 2650.725 2895.355, 2651 2895.049 C 2651.275 2894.742, 2654.875 2891.817, 2659 2888.547 C 2666.159 2882.873, 2688.288 2864.639, 2690.598 2862.512 C 2691.202 2861.955, 2694.319 2859.250, 2697.524 2856.500 C 2700.729 2853.750, 2703.834 2851.041, 2704.425 2850.480 C 2705.016 2849.919, 2709.325 2846.127, 2714 2842.054 C 2718.675 2837.981, 2722.725 2834.391, 2723 2834.075 C 2723.275 2833.759, 2728.886 2828.550, 2735.470 2822.500 C 2764.388 2795.925, 2792.875 2767.468, 2819.500 2738.555 C 2825.550 2731.985, 2831.175 2725.889, 2832 2725.007 C 2833.375 2723.538, 2839.327 2716.783, 2851 2703.443 C 2853.475 2700.615, 2856.625 2696.962, 2858 2695.325 C 2859.375 2693.688, 2863.874 2688.333, 2867.998 2683.425 C 2872.122 2678.516, 2875.732 2674.275, 2876.020 2674 C 2876.308 2673.725, 2879.899 2669.225, 2884 2664 C 2888.101 2658.775, 2891.725 2654.275, 2892.053 2654 C 2893.250 2652.997, 2919.738 2618.250, 2925.976 2609.500 C 2929.505 2604.550, 2933.807 2598.700, 2935.536 2596.500 C 2942.981 2587.029, 2979.540 2532.351, 2989.587 2515.662 C 2991.189 2513.001, 2993.175 2509.775, 2994 2508.493 C 2999.242 2500.352, 3017 2469.985, 3017 2469.164 C 3017 2468.615, 3017.374 2468.017, 3017.830 2467.833 C 3018.622 2467.516, 3021.125 2463.155, 3029.506 2447.500 C 3031.567 2443.650, 3033.580 2440.050, 3033.979 2439.500 C 3036.325 2436.271, 3061.150 2387.601, 3069.685 2369.498 C 3079.981 2347.659, 3084 2338.980, 3084 2338.583 C 3084 2338.360, 3085.607 2334.651, 3087.571 2330.339 C 3092.350 2319.847, 3092.310 2319.940, 3097 2308.500 C 3099.255 2303, 3101.503 2297.600, 3101.995 2296.500 C 3104.697 2290.467, 3108.987 2279.800, 3112.052 2271.500 C 3113.271 2268.200, 3114.641 2264.600, 3115.097 2263.500 C 3117.282 2258.232, 3123.176 2242.432, 3126.475 2233 C 3128.495 2227.225, 3130.507 2221.810, 3130.947 2220.967 C 3131.386 2220.124, 3132.080 2217.874, 3132.488 2215.967 C 3132.897 2214.060, 3133.563 2212.050, 3133.969 2211.500 C 3134.375 2210.950, 3136.611 2204.425, 3138.938 2197 C 3141.265 2189.575, 3143.549 2182.600, 3144.014 2181.500 C 3144.479 2180.400, 3145.824 2176.125, 3147.004 2172 C 3148.184 2167.875, 3149.567 2163.375, 3150.079 2162 C 3150.590 2160.625, 3151.697 2157.025, 3152.538 2154 C 3153.380 2150.975, 3154.728 2146.137, 3155.534 2143.250 C 3156.340 2140.363, 3157.684 2135.527, 3158.519 2132.505 C 3160.003 2127.137, 3160.598 2124.951, 3165.045 2108.500 C 3167.426 2099.693, 3169.486 2091.413, 3171.390 2083 C 3172.074 2079.975, 3172.922 2076.825, 3173.275 2076 C 3173.627 2075.175, 3174.368 2072.250, 3174.921 2069.500 C 3177.003 2059.155, 3178.705 2051.434, 3179.330 2049.500 C 3180.127 2047.032, 3182.717 2033.734, 3184.102 2025 C 3184.668 2021.425, 3185.523 2017.600, 3186 2016.500 C 3186.477 2015.400, 3187.328 2011.575, 3187.891 2008 C 3188.454 2004.425, 3189.595 1997.675, 3190.428 1993 C 3196.783 1957.324, 3202.426 1916.311, 3205.907 1880.500 C 3206.496 1874.450, 3207.434 1865, 3207.992 1859.500 C 3210.921 1830.640, 3211.495 1809.749, 3211.495 1732 C 3211.495 1654.251, 3210.921 1633.360, 3207.992 1604.500 C 3207.434 1599, 3206.496 1589.550, 3205.907 1583.500 C 3203.179 1555.436, 3198.018 1515.853, 3193.977 1492 C 3189.836 1467.560, 3189.103 1463.412, 3187.615 1456 C 3186.787 1451.875, 3185.458 1445.125, 3184.663 1441 C 3182.940 1432.058, 3179.398 1415.041, 3177.379 1406 C 3176.581 1402.425, 3175.475 1397.250, 3174.921 1394.500 C 3174.368 1391.750, 3173.627 1388.825, 3173.275 1388 C 3172.922 1387.175, 3172.074 1384.025, 3171.390 1381 C 3169.486 1372.587, 3167.426 1364.307, 3165.045 1355.500 C 3160.598 1339.049, 3160.003 1336.863, 3158.519 1331.495 C 3157.684 1328.473, 3156.340 1323.638, 3155.534 1320.750 C 3154.728 1317.862, 3153.380 1313.025, 3152.538 1310 C 3151.697 1306.975, 3150.590 1303.375, 3150.079 1302 C 3149.567 1300.625, 3148.184 1296.125, 3147.004 1292 C 3145.824 1287.875, 3144.488 1283.600, 3144.034 1282.500 C 3143.581 1281.400, 3140.610 1272.400, 3137.433 1262.500 C 3134.256 1252.600, 3131.283 1244.073, 3130.828 1243.550 C 3130.373 1243.028, 3130 1241.971, 3130 1241.201 C 3130 1240.432, 3129.379 1238.384, 3128.619 1236.651 C 3127.860 1234.918, 3126.244 1230.575, 3125.029 1227 C 3123.814 1223.425, 3121.524 1217.125, 3119.940 1213 C 3105.805 1176.196, 3105.684 1175.890, 3101.982 1167.500 C 3101.497 1166.400, 3099.255 1161, 3097 1155.500 C 3092.310 1144.060, 3092.350 1144.153, 3087.571 1133.661 C 3085.607 1129.349, 3084 1125.632, 3084 1125.400 C 3084 1125.167, 3081.724 1120.145, 3078.942 1114.239 C 3076.161 1108.332, 3071.773 1099.010, 3069.192 1093.522 C 3061.235 1076.599, 3036.267 1027.665, 3033.975 1024.500 C 3033.577 1023.950, 3031.325 1019.900, 3028.970 1015.500 C 3026.615 1011.100, 3023.613 1005.700, 3022.300 1003.500 C 3020.987 1001.300, 3019.654 998.712, 3019.339 997.750 C 3019.024 996.788, 3018.369 996, 3017.883 996 C 3017.398 996, 3017 995.514, 3017 994.920 C 3017 994.027, 2999.175 963.497, 2994 955.526 C 2992.677 953.488, 2987.317 944.828, 2984.492 940.164 C 2979.961 932.685, 2956.845 897.844, 2947.560 884.500 C 2933.702 864.584, 2894.583 812.032, 2892.102 810 C 2891.766 809.725, 2888.817 806.125, 2885.547 802 C 2878.319 792.881, 2858.141 768.609, 2854 764.053 C 2853.175 763.146, 2849.803 759.275, 2846.507 755.451 C 2843.210 751.628, 2838.710 746.526, 2836.507 744.113 C 2834.303 741.700, 2832.050 739.217, 2831.500 738.595 C 2806.444 710.261, 2765.927 669.531, 2727 633.546 C 2722.231 629.138, 2703.380 612.513, 2694.632 605 C 2693.031 603.625, 2691.221 602.048, 2690.611 601.496 C 2690 600.943, 2687.029 598.468, 2684.010 595.996 C 2680.990 593.523, 2677.390 590.531, 2676.010 589.346 C 2670.107 584.281, 2658.757 575.069, 2651.558 569.500 C 2647.291 566.200, 2642.833 562.672, 2641.651 561.661 C 2637.128 557.793, 2599.704 529.757, 2590.335 523.219 C 2589.326 522.515, 2584 518.808, 2578.500 514.982 C 2573 511.156, 2568.050 507.665, 2567.500 507.224 C 2565.808 505.868, 2531.749 483.535, 2527.500 480.996 C 2525.300 479.681, 2523.275 478.319, 2523 477.969 C 2522.725 477.619, 2519.205 475.346, 2515.178 472.917 C 2511.152 470.487, 2506.652 467.717, 2505.178 466.761 C 2503.705 465.804, 2501.375 464.463, 2500 463.781 C 2498.625 463.099, 2497.275 462.270, 2497 461.938 C 2495.686 460.355, 2456.504 437.865, 2433.500 425.491 C 2430.200 423.716, 2424.800 420.792, 2421.500 418.994 C 2404.257 409.598, 2353.566 384.894, 2337.500 378.058 C 2334.750 376.887, 2331.790 375.540, 2330.923 375.064 C 2330.056 374.588, 2323.306 371.656, 2315.923 368.547 C 2308.540 365.439, 2301.600 362.494, 2300.500 362.002 C 2294.602 359.368, 2288.527 356.869, 2280 353.568 C 2274.775 351.546, 2269.082 349.241, 2267.349 348.446 C 2265.616 347.650, 2263.568 347, 2262.799 347 C 2262.029 347, 2260.973 346.619, 2260.450 346.154 C 2259.928 345.689, 2252.300 342.724, 2243.500 339.566 C 2234.700 336.407, 2226.600 333.422, 2225.500 332.932 C 2222.521 331.604, 2206.091 326.029, 2201.500 324.788 C 2199.300 324.194, 2197.050 323.375, 2196.500 322.969 C 2195.950 322.563, 2193.940 321.897, 2192.033 321.488 C 2190.126 321.080, 2187.876 320.378, 2187.033 319.929 C 2185.553 319.140, 2170.507 314.482, 2155 310.013 C 2150.875 308.824, 2146.375 307.468, 2145 307 C 2142.663 306.204, 2131.636 303.018, 2126 301.509 C 2115.599 298.726, 2107.833 296.748, 2104 295.907 C 2101.525 295.364, 2098.808 294.543, 2097.962 294.083 C 2097.115 293.623, 2094.415 292.941, 2091.962 292.567 C 2089.508 292.193, 2086.600 291.478, 2085.500 290.978 C 2084.400 290.478, 2081.250 289.622, 2078.500 289.075 C 2075.750 288.528, 2069.675 287.164, 2065 286.044 C 2060.325 284.923, 2053.125 283.309, 2049 282.457 C 2044.875 281.605, 2038.350 280.229, 2034.500 279.399 C 2026.890 277.758, 2016.661 275.695, 2008 274.053 C 2004.975 273.480, 2000.250 272.552, 1997.500 271.990 C 1986.311 269.707, 1951.136 264.227, 1927.500 261.086 C 1923.100 260.501, 1916.350 259.564, 1912.500 259.003 C 1899.878 257.163, 1872.800 254.577, 1828 250.932 C 1812.332 249.657, 1671.550 248.976, 1645.500 250.049 M 1585 1041.051 C 1582.525 1041.499, 1571.725 1042.365, 1561 1042.977 C 1540.503 1044.145, 1528.473 1045.270, 1518.500 1046.950 C 1515.200 1047.506, 1508.225 1048.678, 1503 1049.554 C 1482.932 1052.921, 1454.937 1059.275, 1441.500 1063.514 C 1439.300 1064.208, 1433.450 1065.995, 1428.500 1067.486 C 1423.550 1068.976, 1418.394 1070.635, 1417.042 1071.171 C 1415.690 1071.708, 1411.865 1073.053, 1408.542 1074.162 C 1405.219 1075.270, 1401.150 1076.767, 1399.500 1077.489 C 1397.850 1078.211, 1394.475 1079.483, 1392 1080.317 C 1387.796 1081.734, 1380.682 1084.704, 1365 1091.589 C 1357.423 1094.916, 1326.787 1110.331, 1319.500 1114.483 C 1262.605 1146.901, 1209.590 1189.890, 1169.646 1236 C 1164.643 1241.775, 1160.302 1246.725, 1159.999 1247 C 1159.696 1247.275, 1157.897 1249.525, 1156 1252 C 1154.103 1254.475, 1152.269 1256.725, 1151.923 1257 C 1150.116 1258.438, 1127.270 1290.129, 1120.565 1300.500 C 1116.298 1307.100, 1111.950 1313.719, 1110.903 1315.210 C 1109.856 1316.700, 1109 1318.154, 1109 1318.442 C 1109 1318.729, 1107.283 1321.785, 1105.185 1325.232 C 1103.087 1328.680, 1101.058 1332.175, 1100.677 1333 C 1100.295 1333.825, 1099.019 1336.075, 1097.840 1338 C 1093.349 1345.337, 1076.945 1379.036, 1072.041 1391 C 1069.223 1397.875, 1066.540 1404.400, 1066.078 1405.500 C 1063.439 1411.793, 1058.390 1425.771, 1055.604 1434.500 C 1054.726 1437.250, 1052.908 1442.875, 1051.564 1447 C 1049.146 1454.422, 1044.482 1471.237, 1042.966 1478 C 1042.534 1479.925, 1041.453 1484.650, 1040.562 1488.500 C 1034.978 1512.652, 1032.571 1528.594, 1027.800 1573 C 1026.179 1588.090, 1026.186 1643, 1027.811 1658 C 1031.717 1694.069, 1032.703 1701.471, 1036.071 1720 C 1037.706 1728.999, 1040.038 1740.131, 1041.516 1746 C 1042.278 1749.025, 1043.646 1754.650, 1044.555 1758.500 C 1045.465 1762.350, 1046.576 1766.625, 1047.024 1768 C 1047.473 1769.375, 1048.606 1773.200, 1049.542 1776.500 C 1053.798 1791.507, 1063.934 1820.629, 1069.032 1832.500 C 1069.504 1833.600, 1070.752 1836.525, 1071.804 1839 C 1077.019 1851.269, 1079.178 1855.881, 1087.719 1873 C 1100.425 1898.466, 1107.270 1910.256, 1123.426 1934.500 C 1130.743 1945.480, 1144.568 1964.799, 1145.969 1966 C 1146.289 1966.275, 1148.104 1968.525, 1150.001 1971 C 1167.090 1993.293, 1204.485 2032.151, 1227.596 2051.629 C 1249.754 2070.305, 1273.804 2088.014, 1295.592 2101.698 C 1301.874 2105.643, 1311.997 2111.725, 1315 2113.358 C 1316.925 2114.404, 1321.425 2116.907, 1325 2118.920 C 1332.192 2122.969, 1366.407 2140, 1367.350 2140 C 1367.677 2140, 1370.320 2141.069, 1373.223 2142.376 C 1378.591 2144.792, 1391.254 2149.976, 1398.500 2152.723 C 1400.700 2153.557, 1403.400 2154.602, 1404.500 2155.044 C 1409.280 2156.968, 1437.971 2166.039, 1447 2168.481 C 1450.575 2169.448, 1455.525 2170.811, 1458 2171.511 C 1460.475 2172.211, 1466.100 2173.531, 1470.500 2174.444 C 1474.900 2175.357, 1480.075 2176.499, 1482 2176.982 C 1497.980 2180.990, 1534.298 2185.994, 1562.500 2188.072 C 1580.007 2189.362, 1632.832 2188.804, 1651.277 2187.133 C 1685.903 2183.998, 1722.815 2177.299, 1754 2168.490 C 1767.954 2164.549, 1771.563 2163.453, 1782.500 2159.839 C 1789.100 2157.657, 1795.400 2155.505, 1796.500 2155.056 C 1797.600 2154.607, 1800.300 2153.547, 1802.500 2152.700 C 1812.876 2148.708, 1822.865 2144.693, 1826.500 2143.053 C 1828.700 2142.060, 1832.975 2140.201, 1836 2138.921 C 1843.568 2135.718, 1878.542 2117.950, 1883.730 2114.673 C 1886.057 2113.203, 1888.182 2112, 1888.454 2112 C 1889.232 2112, 1908.976 2099.670, 1918.162 2093.447 C 1931.558 2084.372, 1930.922 2084.541, 1935.593 2088.829 C 1937.792 2090.848, 1946.095 2098.345, 1954.045 2105.490 C 1961.995 2112.634, 1968.725 2118.711, 1969 2118.994 C 1969.275 2119.277, 1973.543 2123.107, 1978.485 2127.505 C 1983.427 2131.902, 1987.966 2135.950, 1988.571 2136.500 C 1989.176 2137.050, 1993.458 2140.913, 1998.086 2145.085 C 2002.714 2149.256, 2011.192 2156.906, 2016.928 2162.085 C 2022.663 2167.263, 2030.088 2173.924, 2033.428 2176.886 C 2036.767 2179.848, 2041.551 2184.123, 2044.058 2186.386 C 2059.887 2200.675, 2067.301 2207.341, 2082 2220.505 C 2091.075 2228.632, 2100.525 2237.132, 2103 2239.394 C 2105.475 2241.657, 2111.546 2247.106, 2116.490 2251.504 C 2121.435 2255.902, 2127.510 2261.349, 2129.990 2263.610 C 2139.141 2271.949, 2165.688 2295.740, 2174.458 2303.462 C 2179.431 2307.841, 2184.665 2312.566, 2186.089 2313.962 C 2187.513 2315.358, 2192.003 2319.425, 2196.068 2323 C 2200.133 2326.575, 2206.395 2332.200, 2209.985 2335.500 C 2213.575 2338.800, 2220.087 2344.650, 2224.455 2348.500 C 2228.824 2352.350, 2233.132 2356.175, 2234.028 2357 C 2239.981 2362.482, 2246.710 2368.559, 2254.510 2375.496 C 2259.454 2379.894, 2265.630 2385.474, 2268.234 2387.897 C 2292.257 2410.247, 2323.990 2420.905, 2352.500 2416.197 C 2390.584 2409.910, 2420.622 2384.993, 2432.305 2350 C 2439.813 2327.510, 2439.996 2311.150, 2432.994 2288.408 C 2426.842 2268.430, 2416.268 2253.899, 2393.500 2234.136 C 2390.750 2231.749, 2386.244 2227.705, 2383.486 2225.148 C 2380.728 2222.592, 2374.653 2217.127, 2369.986 2213.004 C 2365.319 2208.881, 2361.050 2205.025, 2360.500 2204.434 C 2359.950 2203.844, 2355.681 2200.018, 2351.014 2195.931 C 2346.347 2191.844, 2340.100 2186.250, 2337.131 2183.500 C 2330.935 2177.760, 2332.171 2178.875, 2320.500 2168.500 C 2315.550 2164.100, 2311.275 2160.270, 2311 2159.990 C 2310.725 2159.709, 2303.975 2153.639, 2296 2146.500 C 2288.025 2139.361, 2281.275 2133.289, 2281 2133.006 C 2280.725 2132.723, 2276.454 2128.893, 2271.510 2124.495 C 2262.913 2116.850, 2254.468 2109.210, 2251.067 2106 C 2250.193 2105.175, 2243.632 2099.336, 2236.489 2093.025 C 2229.345 2086.714, 2223.050 2081.057, 2222.500 2080.456 C 2221.950 2079.854, 2217.681 2076.018, 2213.014 2071.931 C 2208.347 2067.844, 2202.100 2062.250, 2199.131 2059.500 C 2192.734 2053.574, 2193.647 2054.391, 2182.995 2045.054 C 2178.323 2040.959, 2174.050 2037.134, 2173.500 2036.554 C 2172.950 2035.974, 2165.975 2029.654, 2158 2022.510 C 2150.025 2015.366, 2143.275 2009.289, 2143 2009.006 C 2142.725 2008.723, 2138.454 2004.893, 2133.510 2000.495 C 2128.565 1996.098, 2122.490 1990.645, 2120.010 1988.377 C 2117.529 1986.110, 2110.524 1979.810, 2104.441 1974.377 C 2080.905 1953.356, 2072.488 1945.515, 2072.186 1944.330 C 2072.014 1943.653, 2074.108 1939.786, 2076.841 1935.736 C 2095.127 1908.637, 2112.550 1876.925, 2126.968 1844.500 C 2129.094 1839.720, 2136.623 1821.133, 2138.716 1815.500 C 2139.533 1813.300, 2140.831 1810.022, 2141.601 1808.216 C 2142.370 1806.410, 2143 1804.266, 2143 1803.453 C 2143 1802.639, 2143.410 1801.191, 2143.911 1800.236 C 2145.039 1798.089, 2147.272 1791.411, 2149.509 1783.500 C 2150.442 1780.200, 2151.609 1776.375, 2152.103 1775 C 2152.596 1773.625, 2153.901 1768.900, 2155.002 1764.500 C 2156.104 1760.100, 2157.421 1754.925, 2157.931 1753 C 2159.464 1747.206, 2161.728 1736.979, 2163.356 1728.500 C 2164.200 1724.100, 2165.423 1717.800, 2166.073 1714.500 C 2167.376 1707.889, 2168.282 1701.493, 2170.466 1683.500 C 2172.863 1663.757, 2172.971 1662.389, 2174.001 1638.819 C 2175.411 1606.566, 2173.348 1563.456, 2169.011 1534.500 C 2166.253 1516.085, 2163.832 1502.858, 2160.959 1490.500 C 2160.448 1488.300, 2159.106 1482.450, 2157.977 1477.500 C 2156.848 1472.550, 2155.542 1467.375, 2155.075 1466 C 2154.608 1464.625, 2153.426 1460.575, 2152.449 1457 C 2147.541 1439.034, 2135.412 1404.735, 2130.407 1394.669 C 2129.633 1393.112, 2129 1391.457, 2129 1390.992 C 2129 1388.788, 2110.645 1350.952, 2103.830 1339.107 C 2101.173 1334.490, 2099 1330.573, 2099 1330.402 C 2099 1329.422, 2083.869 1305.312, 2075.214 1292.500 C 2056.233 1264.402, 2033.893 1237.267, 2008.832 1211.866 C 1996.207 1199.070, 1991.855 1194.987, 1976.963 1181.965 C 1953.320 1161.290, 1925.605 1141.040, 1898 1124.271 C 1879.701 1113.155, 1852.056 1098.574, 1836 1091.570 C 1820.445 1084.786, 1813.148 1081.721, 1808 1079.812 C 1793.477 1074.425, 1783.226 1070.776, 1780.500 1070.022 C 1778.850 1069.566, 1774.575 1068.253, 1771 1067.104 C 1757.058 1062.624, 1747.426 1059.959, 1733 1056.591 C 1723.341 1054.335, 1718.145 1053.238, 1701.500 1049.935 C 1686.974 1047.053, 1660.918 1044.100, 1640 1042.965 C 1629.825 1042.413, 1618.998 1041.520, 1615.940 1040.981 C 1609.448 1039.836, 1591.491 1039.876, 1585 1041.051 M 1566.500 1171.073 C 1529.549 1174.780, 1495.333 1181.062, 1474.939 1187.884 C 1473.048 1188.517, 1465.425 1191.006, 1458 1193.416 C 1450.575 1195.826, 1443.150 1198.349, 1441.500 1199.023 C 1435.749 1201.373, 1434.468 1201.904, 1429.500 1204 C 1421.520 1207.366, 1421.260 1207.488, 1405 1215.432 C 1386.540 1224.452, 1380.434 1227.754, 1368.024 1235.431 C 1329.878 1259.028, 1293.203 1289.999, 1266.107 1321.500 C 1261.376 1327, 1257.262 1331.725, 1256.964 1332 C 1256.666 1332.275, 1252.946 1337, 1248.698 1342.500 C 1244.450 1348, 1240.558 1353.014, 1240.048 1353.643 C 1235.613 1359.113, 1218.089 1386.755, 1210.975 1399.500 C 1203.344 1413.174, 1189 1443.107, 1189 1445.359 C 1189 1446.042, 1188.623 1447.028, 1188.163 1447.550 C 1187.702 1448.073, 1185.872 1452.550, 1184.095 1457.500 C 1182.318 1462.450, 1180.270 1468.075, 1179.543 1470 C 1170.207 1494.733, 1162.419 1529.696, 1157.935 1567 C 1155.327 1588.695, 1155.061 1640.689, 1157.456 1660.541 C 1159.747 1679.535, 1159.772 1679.712, 1161.453 1689.500 C 1164.129 1705.086, 1164.806 1708.610, 1165.890 1712.608 C 1166.471 1714.749, 1167.832 1720.100, 1168.914 1724.500 C 1172.854 1740.513, 1180.480 1764.993, 1184.491 1774.500 C 1185.187 1776.150, 1187.926 1782.675, 1190.577 1789 C 1198.250 1807.304, 1210.863 1831.925, 1220.802 1848 C 1255.928 1904.811, 1305.165 1954.968, 1360.688 1990.500 C 1385.255 2006.222, 1417.503 2022.376, 1442.500 2031.484 C 1448 2033.488, 1454.075 2035.728, 1456 2036.462 C 1459.107 2037.648, 1468.426 2040.560, 1482 2044.587 C 1493.234 2047.920, 1517.515 2053.045, 1533.500 2055.459 C 1557.640 2059.103, 1570.918 2060, 1600.599 2059.992 C 1617.045 2059.987, 1634.550 2059.504, 1639.500 2058.918 C 1644.450 2058.332, 1652.100 2057.458, 1656.500 2056.975 C 1667.697 2055.747, 1680.556 2053.499, 1701.500 2049.110 C 1703.700 2048.649, 1709.100 2047.257, 1713.500 2046.018 C 1717.900 2044.779, 1722.850 2043.422, 1724.500 2043.002 C 1729.659 2041.690, 1741.352 2037.892, 1744.784 2036.414 C 1746.590 2035.636, 1748.926 2035, 1749.975 2035 C 1751.024 2035, 1752.139 2034.585, 1752.452 2034.077 C 1752.766 2033.569, 1754.466 2032.837, 1756.229 2032.450 C 1757.992 2032.063, 1760.124 2031.373, 1760.967 2030.918 C 1761.810 2030.463, 1767.675 2027.962, 1774 2025.360 C 1784.207 2021.162, 1816.725 2005.227, 1819.455 2003.085 C 1820.030 2002.634, 1823.200 2000.799, 1826.500 1999.007 C 1829.800 1997.216, 1833.932 1994.681, 1835.683 1993.375 C 1837.434 1992.069, 1839.095 1991, 1839.374 1991 C 1841.592 1991, 1878.663 1963.670, 1887.739 1955.344 C 1889.032 1954.158, 1892.980 1950.783, 1896.513 1947.844 C 1910.583 1936.138, 1934.739 1910.365, 1952.133 1888.500 C 1970.582 1865.309, 1993.468 1827.634, 2005.285 1801 C 2006.139 1799.075, 2008.224 1794.431, 2009.919 1790.680 C 2011.614 1786.929, 2013 1783.622, 2013 1783.331 C 2013 1783.040, 2013.631 1781.384, 2014.403 1779.651 C 2016.518 1774.903, 2020.551 1763.634, 2023.942 1753 C 2025.609 1747.775, 2027.623 1741.475, 2028.418 1739 C 2029.723 1734.937, 2032.710 1722.869, 2036.460 1706.500 C 2037.757 1700.839, 2039.537 1690.427, 2041.931 1674.500 C 2046.979 1640.910, 2046.990 1593.225, 2041.959 1556.500 C 2040.405 1545.160, 2038.007 1531.172, 2036.834 1526.608 C 2036.284 1524.467, 2035.454 1520.642, 2034.988 1518.108 C 2033.400 1509.463, 2032.226 1504.916, 2026.954 1487 C 2024.018 1477.022, 2021.727 1469.922, 2020.014 1465.500 C 2019.588 1464.400, 2018.549 1461.700, 2017.705 1459.500 C 1997.071 1405.718, 1970.684 1362.057, 1932.491 1318.500 C 1922.053 1306.596, 1895.074 1280.705, 1883.500 1271.484 C 1880.750 1269.293, 1878.275 1267.232, 1878 1266.904 C 1877.087 1265.815, 1854.606 1249.439, 1848 1245.051 C 1839.733 1239.559, 1822.419 1228.850, 1818.500 1226.805 C 1804.094 1219.288, 1785.503 1210.002, 1781 1208.073 C 1769.067 1202.961, 1766.502 1201.881, 1759.500 1199.025 C 1753.042 1196.391, 1723.958 1187.129, 1714 1184.534 C 1703.514 1181.803, 1700.911 1181.188, 1693 1179.576 C 1673.673 1175.639, 1659.101 1173.361, 1643.743 1171.878 C 1629.629 1170.515, 1577.481 1169.971, 1566.500 1171.073" stroke="none" fill="#cbf3fb" fill-rule="evenodd"/></svg>